# Blender v2.78 (sub 0) OBJ File: 'Chest.blend'
# www.blender.org
mtllib Chest.mtl
o Chest_Cube
v -0.502413 0.000000 -0.502413
v 0.497586 0.000000 -0.502413
v 0.497586 0.000000 0.497586
v -0.502413 0.000000 0.497586
v 0.497586 1.000000 0.433855
v 0.497586 0.936268 0.497586
v -0.502413 0.936268 0.497586
v -0.502413 1.000000 0.433855
v -0.502413 1.000000 -0.424201
v -0.502413 0.921787 -0.502413
v 0.497586 0.921787 -0.502413
v 0.497586 1.000000 -0.424200
vt 0.0245 0.2109
vt 0.2223 0.0182
vt 0.4150 0.2160
vt 0.2172 0.4087
vt 0.5954 0.4012
vt 0.3976 0.5939
vt 0.5803 0.7815
vt 0.4149 0.6117
vt 0.6127 0.4191
vt 0.7781 0.5888
vt 0.0490 0.9499
vt 0.0451 0.6396
vt 0.0711 0.6130
vt 0.3599 0.6093
vt 0.3816 0.6305
vt 0.3856 0.9456
vt 0.7792 0.9857
vt 0.6016 0.8034
vt 0.7994 0.6107
vt 0.9770 0.7930
vt 0.6359 0.4179
vt 0.6075 0.3895
vt 0.6075 0.0547
vt 0.9707 0.0547
vt 0.9707 0.3948
vt 0.9475 0.4179
vn -0.5773 -0.5773 -0.5773
vn 0.5773 -0.5773 -0.5773
vn 0.5773 -0.5773 0.5773
vn -0.5773 -0.5773 0.5773
vn 0.6302 0.2971 0.7173
vn -0.6302 0.2971 0.7173
vn -0.6302 0.7173 -0.2971
vn -0.6302 0.7173 0.2971
vn 0.6302 0.7173 0.2971
vn 0.6302 0.7173 -0.2971
vn 0.6302 0.2971 -0.7173
vn -0.6302 0.2971 -0.7173
usemtl Chest
s 1
f 1/1/1 2/2/2 3/3/3 4/4/4
f 3/3/3 6/5/5 7/6/6 4/4/4
f 9/7/7 8/8/8 5/9/9 12/10/10
f 2/11/2 11/12/11 12/13/10 5/14/9 6/15/5 3/16/3
f 1/17/1 10/18/12 11/19/11 2/20/2
f 5/9/9 8/8/8 7/6/6 6/5/5
f 9/7/7 12/10/10 11/19/11 10/18/12
f 9/21/7 10/22/12 1/23/1 4/24/4 7/25/6 8/26/8
