# Blender v2.78 (sub 0) OBJ File: 'HallwaySegment.blend'
# www.blender.org
mtllib HallwaySegment.mtl
o Hallway_Cube.001
v -2.500000 0.000000 2.000000
v -2.500000 5.000000 2.000000
v -2.500000 0.000000 -2.000000
v -2.500000 5.000000 -2.000000
v 2.500000 0.000000 2.000000
v 2.500000 5.000000 2.000000
v 2.500000 0.000000 -2.000000
v 2.500000 5.000000 -2.000000
v -2.500000 0.000000 -2.000000
v -2.500000 5.000000 -2.000000
v -2.500000 0.000000 -6.000000
v -2.500000 5.000000 -6.000000
v 2.500000 0.000000 -2.000000
v 2.500000 5.000000 -2.000000
v 2.500000 0.000000 -6.000000
v 2.500000 5.000000 -6.000000
v -2.500000 0.000000 -6.000000
v -2.500000 5.000000 -6.000000
v -2.500000 0.000000 -10.000000
v -2.500000 5.000000 -10.000000
v 2.500000 0.000000 -6.000000
v 2.500000 5.000000 -6.000000
v 2.500000 0.000000 -10.000000
v 2.500000 5.000000 -10.000000
v -2.500000 0.000000 -10.000000
v -2.500000 5.000000 -10.000000
v -2.500000 0.000000 -14.000000
v -2.500000 5.000000 -14.000000
v 2.500000 0.000000 -10.000000
v 2.500000 5.000000 -10.000000
v 2.500000 0.000000 -14.000000
v 2.500000 5.000000 -14.000000
v -2.500000 0.000000 -14.000000
v -2.500000 5.000000 -14.000000
v -2.500000 0.000000 -18.000000
v -2.500000 5.000000 -18.000000
v 2.500000 0.000000 -14.000000
v 2.500000 5.000000 -14.000000
v 2.500000 0.000000 -18.000000
v 2.500000 5.000000 -18.000000
v -2.500000 0.000000 -18.000000
v -2.500000 5.000000 -18.000000
v -2.500000 0.000000 -22.000000
v -2.500000 5.000000 -22.000000
v 2.500000 0.000000 -18.000000
v 2.500000 5.000000 -18.000000
v 2.500000 0.000000 -22.000000
v 2.500000 5.000000 -22.000000
v -2.500000 0.000000 -22.000000
v -2.500000 5.000000 -22.000000
v -2.500000 0.000000 -26.000000
v -2.500000 5.000000 -26.000000
v 2.500000 0.000000 -22.000000
v 2.500000 5.000000 -22.000000
v 2.500000 0.000000 -26.000000
v 2.500000 5.000000 -26.000000
v -2.500000 0.000000 -26.000000
v -2.500000 5.000000 -26.000000
v -2.500000 0.000000 -30.000000
v -2.500000 5.000000 -30.000000
v 2.500000 0.000000 -26.000000
v 2.500000 5.000000 -26.000000
v 2.500000 0.000000 -30.000000
v 2.500000 5.000000 -30.000000
v -2.500000 0.000000 -30.000000
v -2.500000 5.000000 -30.000000
v -2.500000 0.000000 -34.000000
v -2.500000 5.000000 -34.000000
v 2.500000 0.000000 -30.000000
v 2.500000 5.000000 -30.000000
v 2.500000 0.000000 -34.000000
v 2.500000 5.000000 -34.000000
v -2.500000 0.000000 -34.000000
v -2.500000 5.000000 -34.000000
v -2.500000 0.000000 -38.000000
v -2.500000 5.000000 -38.000000
v 2.500000 0.000000 -34.000000
v 2.500000 5.000000 -34.000000
v 2.500000 0.000000 -38.000000
v 2.500000 5.000000 -38.000000
v -2.500000 0.000000 -38.000000
v -2.500000 5.000000 -38.000000
v -2.500000 0.000000 -42.000000
v -2.500000 5.000000 -42.000000
v 2.500000 0.000000 -38.000000
v 2.500000 5.000000 -38.000000
v 2.500000 0.000000 -42.000000
v 2.500000 5.000000 -42.000000
v -2.500000 0.000000 -42.000000
v -2.500000 5.000000 -42.000000
v -2.500000 0.000000 -46.000000
v -2.500000 5.000000 -46.000000
v 2.500000 0.000000 -42.000000
v 2.500000 5.000000 -42.000000
v 2.500000 0.000000 -46.000000
v 2.500000 5.000000 -46.000000
v -2.500000 0.000000 -46.000000
v -2.500000 5.000000 -46.000000
v -2.500000 0.000000 -50.000000
v -2.500000 5.000000 -50.000000
v 2.500000 0.000000 -46.000000
v 2.500000 5.000000 -46.000000
v 2.500000 0.000000 -50.000000
v 2.500000 5.000000 -50.000000
v -2.500000 0.000000 -50.000000
v -2.500000 5.000000 -50.000000
v -2.500000 0.000000 -54.000000
v -2.500000 5.000000 -54.000000
v 2.500000 0.000000 -50.000000
v 2.500000 5.000000 -50.000000
v 2.500000 0.000000 -54.000000
v 2.500000 5.000000 -54.000000
v -2.500000 0.000000 -54.000000
v -2.500000 5.000000 -54.000000
v -2.500000 0.000000 -58.000000
v -2.500000 5.000000 -58.000000
v 2.500000 0.000000 -54.000000
v 2.500000 5.000000 -54.000000
v 2.500000 0.000000 -58.000000
v 2.500000 5.000000 -58.000000
v -2.500000 0.000000 -58.000000
v -2.500000 5.000000 -58.000000
v -2.500000 0.000000 -62.000000
v -2.500000 5.000000 -62.000000
v 2.500000 0.000000 -58.000000
v 2.500000 5.000000 -58.000000
v 2.500000 0.000000 -62.000000
v 2.500000 5.000000 -62.000000
v -2.500000 0.000000 -62.000000
v -2.500000 5.000000 -62.000000
v -2.500000 0.000000 -66.000000
v -2.500000 5.000000 -66.000000
v 2.500000 0.000000 -62.000000
v 2.500000 5.000000 -62.000000
v 2.500000 0.000000 -66.000000
v 2.500000 5.000000 -66.000000
v -2.500000 0.000000 -66.000000
v -2.500000 5.000000 -66.000000
v -2.500000 0.000000 -70.000000
v -2.500000 5.000000 -70.000000
v 2.500000 0.000000 -66.000000
v 2.500000 5.000000 -66.000000
v 2.500000 0.000000 -70.000000
v 2.500000 5.000000 -70.000000
v -2.500000 0.000000 -70.000000
v -2.500000 5.000000 -70.000000
v -2.500000 0.000000 -74.000000
v -2.500000 5.000000 -74.000000
v 2.500000 0.000000 -70.000000
v 2.500000 5.000000 -70.000000
v 2.500000 0.000000 -74.000000
v 2.500000 5.000000 -74.000000
v -2.500000 0.000000 -74.000000
v -2.500000 5.000000 -74.000000
v -2.500000 0.000000 -78.000000
v -2.500000 5.000000 -78.000000
v 2.500000 0.000000 -74.000000
v 2.500000 5.000000 -74.000000
v 2.500000 0.000000 -78.000000
v 2.500000 5.000000 -78.000000
vt 0.0001 0.5204
vt 0.4999 0.5204
vt 0.4999 0.9835
vt 0.0001 0.9835
vt 0.5001 0.5204
vt 0.9999 0.5204
vt 0.9999 0.9835
vt 0.5001 0.9835
vt 0.0001 0.4999
vt 0.0001 0.0001
vt 0.5000 0.0001
vt 0.5000 0.5000
vt 0.6557 0.0603
vt 0.6881 0.0603
vt 0.6881 0.0890
vt 0.6557 0.0890
vt 0.0001 0.5204
vt 0.4999 0.5204
vt 0.4999 0.9835
vt 0.0001 0.9835
vt 0.5001 0.5204
vt 0.9999 0.5204
vt 0.9999 0.9835
vt 0.5001 0.9835
vt 0.0001 0.4999
vt 0.0001 0.0001
vt 0.5000 0.0001
vt 0.5000 0.5000
vt 0.6557 0.0603
vt 0.6881 0.0603
vt 0.6881 0.0890
vt 0.6557 0.0890
vt 0.0001 0.5204
vt 0.4999 0.5204
vt 0.4999 0.9835
vt 0.0001 0.9835
vt 0.5001 0.5204
vt 0.9999 0.5204
vt 0.9999 0.9835
vt 0.5001 0.9835
vt 0.0001 0.4999
vt 0.0001 0.0001
vt 0.5000 0.0001
vt 0.5000 0.5000
vt 0.6557 0.0603
vt 0.6881 0.0603
vt 0.6881 0.0890
vt 0.6557 0.0890
vt 0.0001 0.5204
vt 0.4999 0.5204
vt 0.4999 0.9835
vt 0.0001 0.9835
vt 0.5001 0.5204
vt 0.9999 0.5204
vt 0.9999 0.9835
vt 0.5001 0.9835
vt 0.0001 0.4999
vt 0.0001 0.0001
vt 0.5000 0.0001
vt 0.5000 0.5000
vt 0.6557 0.0603
vt 0.6881 0.0603
vt 0.6881 0.0890
vt 0.6557 0.0890
vt 0.0001 0.5204
vt 0.4999 0.5204
vt 0.4999 0.9835
vt 0.0001 0.9835
vt 0.5001 0.5204
vt 0.9999 0.5204
vt 0.9999 0.9835
vt 0.5001 0.9835
vt 0.0001 0.4999
vt 0.0001 0.0001
vt 0.5000 0.0001
vt 0.5000 0.5000
vt 0.6557 0.0603
vt 0.6881 0.0603
vt 0.6881 0.0890
vt 0.6557 0.0890
vt 0.0001 0.5204
vt 0.4999 0.5204
vt 0.4999 0.9835
vt 0.0001 0.9835
vt 0.5001 0.5204
vt 0.9999 0.5204
vt 0.9999 0.9835
vt 0.5001 0.9835
vt 0.0001 0.4999
vt 0.0001 0.0001
vt 0.5000 0.0001
vt 0.5000 0.5000
vt 0.6557 0.0603
vt 0.6881 0.0603
vt 0.6881 0.0890
vt 0.6557 0.0890
vt 0.0001 0.5204
vt 0.4999 0.5204
vt 0.4999 0.9835
vt 0.0001 0.9835
vt 0.5001 0.5204
vt 0.9999 0.5204
vt 0.9999 0.9835
vt 0.5001 0.9835
vt 0.0001 0.4999
vt 0.0001 0.0001
vt 0.5000 0.0001
vt 0.5000 0.5000
vt 0.6557 0.0603
vt 0.6881 0.0603
vt 0.6881 0.0890
vt 0.6557 0.0890
vt 0.0001 0.5204
vt 0.4999 0.5204
vt 0.4999 0.9835
vt 0.0001 0.9835
vt 0.5001 0.5204
vt 0.9999 0.5204
vt 0.9999 0.9835
vt 0.5001 0.9835
vt 0.0001 0.4999
vt 0.0001 0.0001
vt 0.5000 0.0001
vt 0.5000 0.5000
vt 0.6557 0.0603
vt 0.6881 0.0603
vt 0.6881 0.0890
vt 0.6557 0.0890
vt 0.0001 0.5204
vt 0.4999 0.5204
vt 0.4999 0.9835
vt 0.0001 0.9835
vt 0.5001 0.5204
vt 0.9999 0.5204
vt 0.9999 0.9835
vt 0.5001 0.9835
vt 0.0001 0.4999
vt 0.0001 0.0001
vt 0.5000 0.0001
vt 0.5000 0.5000
vt 0.6557 0.0603
vt 0.6881 0.0603
vt 0.6881 0.0890
vt 0.6557 0.0890
vt 0.0001 0.5204
vt 0.4999 0.5204
vt 0.4999 0.9835
vt 0.0001 0.9835
vt 0.5001 0.5204
vt 0.9999 0.5204
vt 0.9999 0.9835
vt 0.5001 0.9835
vt 0.0001 0.4999
vt 0.0001 0.0001
vt 0.5000 0.0001
vt 0.5000 0.5000
vt 0.6557 0.0603
vt 0.6881 0.0603
vt 0.6881 0.0890
vt 0.6557 0.0890
vt 0.0001 0.5204
vt 0.4999 0.5204
vt 0.4999 0.9835
vt 0.0001 0.9835
vt 0.5001 0.5204
vt 0.9999 0.5204
vt 0.9999 0.9835
vt 0.5001 0.9835
vt 0.0001 0.4999
vt 0.0001 0.0001
vt 0.5000 0.0001
vt 0.5000 0.5000
vt 0.6557 0.0603
vt 0.6881 0.0603
vt 0.6881 0.0890
vt 0.6557 0.0890
vt 0.0001 0.5204
vt 0.4999 0.5204
vt 0.4999 0.9835
vt 0.0001 0.9835
vt 0.5001 0.5204
vt 0.9999 0.5204
vt 0.9999 0.9835
vt 0.5001 0.9835
vt 0.0001 0.4999
vt 0.0001 0.0001
vt 0.5000 0.0001
vt 0.5000 0.5000
vt 0.6557 0.0603
vt 0.6881 0.0603
vt 0.6881 0.0890
vt 0.6557 0.0890
vt 0.0001 0.5204
vt 0.4999 0.5204
vt 0.4999 0.9835
vt 0.0001 0.9835
vt 0.5001 0.5204
vt 0.9999 0.5204
vt 0.9999 0.9835
vt 0.5001 0.9835
vt 0.0001 0.4999
vt 0.0001 0.0001
vt 0.5000 0.0001
vt 0.5000 0.5000
vt 0.6557 0.0603
vt 0.6881 0.0603
vt 0.6881 0.0890
vt 0.6557 0.0890
vt 0.0001 0.5204
vt 0.4999 0.5204
vt 0.4999 0.9835
vt 0.0001 0.9835
vt 0.5001 0.5204
vt 0.9999 0.5204
vt 0.9999 0.9835
vt 0.5001 0.9835
vt 0.0001 0.4999
vt 0.0001 0.0001
vt 0.5000 0.0001
vt 0.5000 0.5000
vt 0.6557 0.0603
vt 0.6881 0.0603
vt 0.6881 0.0890
vt 0.6557 0.0890
vt 0.0001 0.5204
vt 0.4999 0.5204
vt 0.4999 0.9835
vt 0.0001 0.9835
vt 0.5001 0.5204
vt 0.9999 0.5204
vt 0.9999 0.9835
vt 0.5001 0.9835
vt 0.0001 0.4999
vt 0.0001 0.0001
vt 0.5000 0.0001
vt 0.5000 0.5000
vt 0.6557 0.0603
vt 0.6881 0.0603
vt 0.6881 0.0890
vt 0.6557 0.0890
vt 0.0001 0.5204
vt 0.4999 0.5204
vt 0.4999 0.9835
vt 0.0001 0.9835
vt 0.5001 0.5204
vt 0.9999 0.5204
vt 0.9999 0.9835
vt 0.5001 0.9835
vt 0.0001 0.4999
vt 0.0001 0.0001
vt 0.5000 0.0001
vt 0.5000 0.5000
vt 0.6557 0.0603
vt 0.6881 0.0603
vt 0.6881 0.0890
vt 0.6557 0.0890
vt 0.0001 0.5204
vt 0.4999 0.5204
vt 0.4999 0.9835
vt 0.0001 0.9835
vt 0.5001 0.5204
vt 0.9999 0.5204
vt 0.9999 0.9835
vt 0.5001 0.9835
vt 0.0001 0.4999
vt 0.0001 0.0001
vt 0.5000 0.0001
vt 0.5000 0.5000
vt 0.6557 0.0603
vt 0.6881 0.0603
vt 0.6881 0.0890
vt 0.6557 0.0890
vt 0.0001 0.5204
vt 0.4999 0.5204
vt 0.4999 0.9835
vt 0.0001 0.9835
vt 0.5001 0.5204
vt 0.9999 0.5204
vt 0.9999 0.9835
vt 0.5001 0.9835
vt 0.0001 0.4999
vt 0.0001 0.0001
vt 0.5000 0.0001
vt 0.5000 0.5000
vt 0.6557 0.0603
vt 0.6881 0.0603
vt 0.6881 0.0890
vt 0.6557 0.0890
vt 0.0001 0.5204
vt 0.4999 0.5204
vt 0.4999 0.9835
vt 0.0001 0.9835
vt 0.5001 0.5204
vt 0.9999 0.5204
vt 0.9999 0.9835
vt 0.5001 0.9835
vt 0.0001 0.4999
vt 0.0001 0.0001
vt 0.5000 0.0001
vt 0.5000 0.5000
vt 0.6557 0.0603
vt 0.6881 0.0603
vt 0.6881 0.0890
vt 0.6557 0.0890
vt 0.0001 0.5204
vt 0.4999 0.5204
vt 0.4999 0.9835
vt 0.0001 0.9835
vt 0.5001 0.5204
vt 0.9999 0.5204
vt 0.9999 0.9835
vt 0.5001 0.9835
vt 0.0001 0.4999
vt 0.0001 0.0001
vt 0.5000 0.0001
vt 0.5000 0.5000
vt 0.6557 0.0603
vt 0.6881 0.0603
vt 0.6881 0.0890
vt 0.6557 0.0890
vn 1.0000 0.0000 0.0000
vn -1.0000 0.0000 0.0000
vn 0.0000 1.0000 0.0000
vn 0.0000 -1.0000 0.0000
usemtl Material.001
s off
f 1/1/1 3/2/1 4/3/1 2/4/1
f 7/5/2 5/6/2 6/7/2 8/8/2
f 3/9/3 1/10/3 5/11/3 7/12/3
f 8/13/4 6/14/4 2/15/4 4/16/4
f 9/17/1 11/18/1 12/19/1 10/20/1
f 15/21/2 13/22/2 14/23/2 16/24/2
f 11/25/3 9/26/3 13/27/3 15/28/3
f 16/29/4 14/30/4 10/31/4 12/32/4
f 17/33/1 19/34/1 20/35/1 18/36/1
f 23/37/2 21/38/2 22/39/2 24/40/2
f 19/41/3 17/42/3 21/43/3 23/44/3
f 24/45/4 22/46/4 18/47/4 20/48/4
f 25/49/1 27/50/1 28/51/1 26/52/1
f 31/53/2 29/54/2 30/55/2 32/56/2
f 27/57/3 25/58/3 29/59/3 31/60/3
f 32/61/4 30/62/4 26/63/4 28/64/4
f 33/65/1 35/66/1 36/67/1 34/68/1
f 39/69/2 37/70/2 38/71/2 40/72/2
f 35/73/3 33/74/3 37/75/3 39/76/3
f 40/77/4 38/78/4 34/79/4 36/80/4
f 41/81/1 43/82/1 44/83/1 42/84/1
f 47/85/2 45/86/2 46/87/2 48/88/2
f 43/89/3 41/90/3 45/91/3 47/92/3
f 48/93/4 46/94/4 42/95/4 44/96/4
f 49/97/1 51/98/1 52/99/1 50/100/1
f 55/101/2 53/102/2 54/103/2 56/104/2
f 51/105/3 49/106/3 53/107/3 55/108/3
f 56/109/4 54/110/4 50/111/4 52/112/4
f 57/113/1 59/114/1 60/115/1 58/116/1
f 63/117/2 61/118/2 62/119/2 64/120/2
f 59/121/3 57/122/3 61/123/3 63/124/3
f 64/125/4 62/126/4 58/127/4 60/128/4
f 65/129/1 67/130/1 68/131/1 66/132/1
f 71/133/2 69/134/2 70/135/2 72/136/2
f 67/137/3 65/138/3 69/139/3 71/140/3
f 72/141/4 70/142/4 66/143/4 68/144/4
f 73/145/1 75/146/1 76/147/1 74/148/1
f 79/149/2 77/150/2 78/151/2 80/152/2
f 75/153/3 73/154/3 77/155/3 79/156/3
f 80/157/4 78/158/4 74/159/4 76/160/4
f 81/161/1 83/162/1 84/163/1 82/164/1
f 87/165/2 85/166/2 86/167/2 88/168/2
f 83/169/3 81/170/3 85/171/3 87/172/3
f 88/173/4 86/174/4 82/175/4 84/176/4
f 89/177/1 91/178/1 92/179/1 90/180/1
f 95/181/2 93/182/2 94/183/2 96/184/2
f 91/185/3 89/186/3 93/187/3 95/188/3
f 96/189/4 94/190/4 90/191/4 92/192/4
f 97/193/1 99/194/1 100/195/1 98/196/1
f 103/197/2 101/198/2 102/199/2 104/200/2
f 99/201/3 97/202/3 101/203/3 103/204/3
f 104/205/4 102/206/4 98/207/4 100/208/4
f 105/209/1 107/210/1 108/211/1 106/212/1
f 111/213/2 109/214/2 110/215/2 112/216/2
f 107/217/3 105/218/3 109/219/3 111/220/3
f 112/221/4 110/222/4 106/223/4 108/224/4
f 113/225/1 115/226/1 116/227/1 114/228/1
f 119/229/2 117/230/2 118/231/2 120/232/2
f 115/233/3 113/234/3 117/235/3 119/236/3
f 120/237/4 118/238/4 114/239/4 116/240/4
f 121/241/1 123/242/1 124/243/1 122/244/1
f 127/245/2 125/246/2 126/247/2 128/248/2
f 123/249/3 121/250/3 125/251/3 127/252/3
f 128/253/4 126/254/4 122/255/4 124/256/4
f 129/257/1 131/258/1 132/259/1 130/260/1
f 135/261/2 133/262/2 134/263/2 136/264/2
f 131/265/3 129/266/3 133/267/3 135/268/3
f 136/269/4 134/270/4 130/271/4 132/272/4
f 137/273/1 139/274/1 140/275/1 138/276/1
f 143/277/2 141/278/2 142/279/2 144/280/2
f 139/281/3 137/282/3 141/283/3 143/284/3
f 144/285/4 142/286/4 138/287/4 140/288/4
f 145/289/1 147/290/1 148/291/1 146/292/1
f 151/293/2 149/294/2 150/295/2 152/296/2
f 147/297/3 145/298/3 149/299/3 151/300/3
f 152/301/4 150/302/4 146/303/4 148/304/4
f 153/305/1 155/306/1 156/307/1 154/308/1
f 159/309/2 157/310/2 158/311/2 160/312/2
f 155/313/3 153/314/3 157/315/3 159/316/3
f 160/317/4 158/318/4 154/319/4 156/320/4
